<?xml version="1.0"?>
<svg xmlns="http://www.w3.org/2000/svg" viewBox="0 0 512 512" width="512" height="512"><g id="Outline"><path d="M480,144v-8a16.019,16.019,0,0,0,16-16V96a16.019,16.019,0,0,0-16-16h-.679A48,48,0,0,0,384,88v16h-8v16h6.671L373,136.125a42.035,42.035,0,0,0-13-2.065,42.9,42.9,0,0,0-4.285.217,36.556,36.556,0,0,0-.354-14.324l18.3-18.3a8,8,0,0,0,0-11.314l-16-16a8,8,0,0,0-11.314,0L340.686,80H288a63.994,63.994,0,0,0-17,125.689l-20.654,20.654,0,0L240,236.687,211.314,208l16.676-16.676L216.677,180.01l-22.334,22.333a8,8,0,0,0,0,11.314l40,40a8,8,0,0,0,11.314,0L256,243.314l46.423,46.423-33.648,74.017a15.882,15.882,0,0,1-8.817,8.309L171.1,406.234l-7.636-11.454,64.417-35.787a8,8,0,0,0,3.27-3.415l24-48a8,8,0,0,0-9.685-11.168L182.3,317.469a16,16,0,0,1-11.564-.56L144,305.021V285.769l29.471,9.821a8,8,0,0,0,7.179-1.08l41.937-29.955-9.3-13.02-38.622,27.587-36.1-12.03c-.012,0-.022-.011-.034-.015l-32-10.667a8,8,0,0,0-7.118,1.036l-47.23,33.062A84.892,84.892,0,0,0,16,360a8,8,0,0,0,3.2,6.4l32,24a8,8,0,0,0,12.492-4.2l3.568-12.485a167.08,167.08,0,0,1,38.6-68.131l26.891,11.952.034.013,31.462,13.986a31.961,31.961,0,0,0,23.113,1.116l44.847-14.95-14.256,28.511-69.184,38.436-23.3,7.765a8,8,0,0,0-3.87,2.79,55.742,55.742,0,0,1-55.254,21.111l-40.777-8.156A8,8,0,0,0,16,416v48a8,8,0,0,0,8,8H38.244a207.5,207.5,0,0,0,133.871-49.012L265.7,387a31.784,31.784,0,0,0,17.642-16.627l27.9-61.37,16.914,84.569A8,8,0,0,0,336,400h32a8,8,0,0,0,8-8V376h8a8,8,0,0,0,8-8V352a8,8,0,0,0-4.422-7.155l-12.251-6.126L363.468,255.7c2.071-1.534,4.2-2.975,6.39-4.284a93.876,93.876,0,0,0,29.256-27.511l-13.187-9.06a77.981,77.981,0,0,1-24.3,22.847c-.228.137-.45.285-.677.423l-.733-5.133L370.216,208H480a32,32,0,0,0,0-64ZM98.343,290.343a183.082,183.082,0,0,0-46.468,78.973l-.374,1.31L32.112,356.084a68.886,68.886,0,0,1,29.245-52.469l43.933-30.753L128,280.433v17.479l-20.751-9.223A8,8,0,0,0,98.343,290.343ZM38.244,456H32V425.759L63.208,432a71.862,71.862,0,0,0,69.615-25.175l15.91-5.3,8.6,12.909A191.526,191.526,0,0,1,38.244,456ZM440,148a12,12,0,1,1,12,12A12.013,12.013,0,0,1,440,148Zm40.01-28h-12.7l-13.656-13.657a8,8,0,0,0-11.314,0L428.687,120H416V96h64ZM432,56a32.059,32.059,0,0,1,30.988,24H401.012A32.059,32.059,0,0,1,432,56Zm-16,80h10.707a27.951,27.951,0,0,0,0,24H424a7.994,7.994,0,0,0-3.578.845l-10.842,5.421-19.924-19.923c-.857-.857-1.755-1.659-2.672-2.432l11.876-19.8A8,8,0,0,0,400,120,16.019,16.019,0,0,0,416,136Zm-43.529,17.26c.663.358,1.305.759,1.937,1.18L359.384,192H325.766l9.226-27.678,6.665-6.665a25.927,25.927,0,0,1,30.814-4.4ZM297.822,241.9l5.151,25.757L267.314,232l24-24h12.254l-4.47,13.408A40.058,40.058,0,0,0,297.822,241.9Zm9.492-49.9,2.38-2.38L308.9,192ZM352,91.313,356.686,96l-8.8,8.8c-.7-.843-1.441-1.665-2.231-2.455s-1.608-1.529-2.452-2.234ZM288,96h14.863a36.4,36.4,0,0,0-8.52,6.343l-52.981,52.981A47.974,47.974,0,0,1,288,96Zm-39.672,74.986,57.329-57.329a20.284,20.284,0,0,1,28.686,28.686l-4,4h0L284.8,191.882A48.009,48.009,0,0,1,248.328,170.986ZM376,360h-8a8,8,0,0,0-8,8v16H342.559l-5.145-25.724,29.464-5.893L376,356.944ZM344.572,229.029a8,8,0,0,0-.491,4.1L359.01,337.639l-24.734,4.947L313.511,238.765a24.039,24.039,0,0,1,.766-12.3L320.433,208h32.551Zm42.35-62.793,12.511,12.51-.755,4.531a77.414,77.414,0,0,1-2,8.723H376.616ZM480,192H413.211c.477-2.021.91-4.053,1.25-6.1l.761-4.57L425.889,176H452a28.034,28.034,0,0,0,25.293-16H480a16,16,0,0,1,0,32Z"/></g></svg>
